<svg data-v-423bf9ae="" xmlns="http://www.w3.org/2000/svg" viewBox="0 0 315.87726696516154 188" class="iconAboveSlogan"><!----><!----><!----><g data-v-423bf9ae="" id="c09f7fd4-cbb4-421c-8014-3624e616abd7" fill="#163530" transform="matrix(5.7526364568010235,0,0,5.7526364568010235,-4.659639339472534,103.00000381469727)"><path d="M7.04 4.41C7.04 2.77 5.96 1.86 4.21 1.86L0.81 1.86L1.12 2.91L1.12 10.26L2.44 10.26L2.44 6.94L4.21 6.94C5.96 6.94 7.04 6.05 7.04 4.41ZM4.21 3.01C5.14 3.01 5.67 3.50 5.67 4.41C5.67 5.32 5.14 5.81 4.21 5.81L2.44 5.81L2.44 3.01ZM14.08 7C14.08 4.87 12.87 3.57 10.92 3.57C8.97 3.57 7.74 4.87 7.74 7C7.74 9.11 8.97 10.43 10.92 10.43C12.87 10.43 14.08 9.11 14.08 7ZM12.71 7C12.71 8.50 12.01 9.28 10.92 9.28C9.81 9.28 9.11 8.50 9.11 7C9.11 5.50 9.81 4.70 10.92 4.70C12.01 4.70 12.71 5.50 12.71 7ZM21.55 7C21.55 4.87 20.33 3.57 18.38 3.57C16.44 3.57 15.20 4.87 15.20 7C15.20 9.11 16.44 10.43 18.38 10.43C20.33 10.43 21.55 9.11 21.55 7ZM20.17 7C20.17 8.50 19.47 9.28 18.38 9.28C17.28 9.28 16.58 8.50 16.58 7C16.58 5.50 17.28 4.70 18.38 4.70C19.47 4.70 20.17 5.50 20.17 7ZM25.55 10.26L25.55 9.80L24.54 9.28L24.54 0L23.23 0L23.23 10.26ZM33.88 7.08L33.88 6.62L31.72 6.62L31.72 6.80C31.72 7.25 31.67 7.64 31.54 7.95L29.54 5.80C30.39 5.24 31.18 4.63 31.18 3.64C31.18 2.45 30.39 1.69 29.12 1.69C27.85 1.69 27.03 2.55 27.03 3.68C27.03 4.34 27.36 4.98 27.93 5.67C26.99 6.26 26.08 6.94 26.08 8.12C26.08 9.42 27.08 10.43 29.26 10.43C30.30 10.43 31.11 10.15 31.70 9.69C32.41 10.26 33.07 10.44 33.74 10.26L33.74 9.14C33.32 9.27 32.93 9.20 32.45 8.83C32.66 8.47 32.80 8.05 32.87 7.60ZM29.99 3.64C29.99 4.26 29.50 4.66 28.90 5.07C28.46 4.55 28.22 4.14 28.22 3.68C28.22 3.09 28.57 2.72 29.12 2.72C29.62 2.72 29.99 3.05 29.99 3.64ZM30.86 8.89C30.46 9.21 29.93 9.38 29.26 9.38C28.17 9.38 27.47 8.88 27.47 8.02C27.47 7.34 27.96 6.86 28.59 6.41ZM40.94 3.01L40.94 1.86L34.10 1.86L34.10 4.00L34.57 4.00L35.06 3.01L36.83 3.01L36.83 10.26L38.21 10.26L38.21 3.01ZM44.88 3.57C43.01 3.57 41.78 4.86 41.78 7C41.78 9.21 43.16 10.43 45.42 10.43C46.03 10.43 46.82 10.29 47.38 10.08L47.38 8.95C46.80 9.14 46.06 9.28 45.42 9.28C44.14 9.28 43.26 8.74 43.15 7.43L47.89 7.43C47.91 7.29 47.91 7.15 47.91 7C47.91 4.86 46.77 3.57 44.88 3.57ZM46.61 6.36L43.16 6.36C43.29 5.25 43.95 4.65 44.88 4.65C45.78 4.65 46.47 5.22 46.61 6.36ZM55.72 10.26L55.72 9.14C55.52 9.21 55.30 9.28 55.06 9.28C54.74 9.28 54.60 9.13 54.60 8.81L54.60 6.02C54.60 4.44 53.48 3.57 51.67 3.57C51.09 3.57 50.36 3.70 49.70 3.88L49.70 5.80L50.15 5.80L50.67 4.82C51.02 4.75 51.38 4.70 51.67 4.70C52.75 4.70 53.28 5.17 53.28 6.02L53.28 6.40L51.52 6.40C49.88 6.40 49.03 7.24 49.03 8.34C49.03 9.53 49.99 10.43 51.74 10.43C52.42 10.43 53.07 10.25 53.61 9.98C53.84 10.26 54.26 10.43 54.73 10.43C55.08 10.43 55.45 10.35 55.72 10.26ZM53.28 9.02C52.82 9.24 52.28 9.38 51.74 9.38C50.82 9.38 50.36 8.99 50.36 8.34C50.36 7.78 50.71 7.43 51.52 7.43L53.28 7.43Z"></path></g><defs data-v-423bf9ae=""><linearGradient data-v-423bf9ae="" gradientTransform="rotate(25)" id="39dc57af-f72c-44e7-8fb0-3ee8abc4ad4f" x1="0%" y1="0%" x2="100%" y2="0%"><stop data-v-423bf9ae="" offset="0%" style="stop-color: rgb(2, 24, 2); stop-opacity: 1;"></stop><stop data-v-423bf9ae="" offset="100%" style="stop-color: rgb(96, 219, 204); stop-opacity: 1;"></stop></linearGradient></defs><g data-v-423bf9ae="" id="7d3d1682-2dcd-47ca-9637-bbd1b7db3a1a" transform="matrix(1.2473507036099796,0,0,1.2473507036099796,95.74442473275249,-16.44389247232933)" stroke="none" fill="url(#39dc57af-f72c-44e7-8fb0-3ee8abc4ad4f)"><path d="M93.568 37.303c2.698 7.938 1.222 15.139-4.018 21.615-.237.293-.457.883-.977.546-.136-.088.003-.672.086-1.011.385-1.591.947-3.155 1.169-4.766 1.072-7.764-.968-18.703-9.954-23.478-8.843-4.699-18.244-5.67-27.784-2.363-16.456 5.706-20.101 31.24-10.671 42.292C47.086 76.78 54.087 81.299 62.09 84.47c.556.22 1.199.313 1.427 1-.537.015-1.098.139-1.608.03-6.352-1.364-12.481-3.37-18.061-6.764-6.608-4.019-11.66-9.35-13.666-17.062-1.647-6.332-1.269-12.699.242-18.962 2.676-11.086 7.794-19.281 17.901-25.118 1.566-.904 6.568-2.642 8.951-3.133 15.489-2.92 27.698 6.905 28.771 8.951.156.297-7.547-4.795-11.062-5.498-7.607-1.599-12.084-1.4-17.181-.369-11.511 1.692-19.709 15.649-19.709 15.649s16.797-15.164 27.591-14.71c13.137-.243 23.817 6.86 27.882 18.819z"></path><path d="M89.391 81.332c-3.52-1.419-7.173-2.262-10.956-1.731-6.851.961-13.456.393-19.767-2.586-.432-.204-1.009-.422-1.231-.007-.23.432.333.757.7 1.009 3.942 2.711 8.063 4.984 12.964 5.407 1.817.157 3.629.373 5.441.587.415.049 1.082-.023 1.062.552-.02.584-.688.377-1.078.427-15 1.951-32.87-9.871-36.707-24.498-2.377-9.06-1.059-17.571 5.845-24.315 6.729-6.574 15.072-8.341 24.079-5.931 15.154 4.055 22.338 23.523 11.056 34.053-.37.345-2.652 2.372-5.113 3.588-7.558 3.735-17.007.122-20.007-7.425-.122-.307-.043-.795-.54-.73-.079.01-.08.66-.109 1.015-.689 8.444 4.833 14.87 13.713 16.059 3.543.474 7.105.378 10.655.589 3.733.222 7.476.637 10.229 3.682-.079.087-.157.171-.236.255zM47.909 67.139c.168.286.601.717.752.66.636-.241.208-.721.073-1.079-2.078-5.507-1.356-10.992.4-16.354 2.666-8.141 10.792-12.311 18.469-9.699 3.381 1.151 5.438 3.916 5.307 7.156-.018.443.056 1.048-.417 1.211-.597.206-.605-.511-.804-.827-1.737-2.755-4.126-3.983-7.408-3.408-3.478.609-5.427 2.686-6.202 6.065-1.503 6.547 4.066 12.519 11.191 11.959 5.965-.469 9.528-3.221 11.298-8.725 1.803-5.606.348-11.43-4.022-14.9-7.217-5.73-18.397-7.58-26.148 3.037-3.15 4.315-5.208 10.375-5.207 15.578-.074 3.394 1.027 6.449 2.718 9.326z"></path><path d="M19.12 54.094c.496 7.534 1.619 14.87 6.465 21.074.201.258.608.577.303.889-.411.422-.834-.032-1.219-.216-3.421-1.63-6.95-2.73-10.813-2.363-3.351.318-6.068 1.82-8.278 4.306-.381.429-.692 1.078-.235 1.446.366.294.622-.436.921-.707 3.929-3.557 8.163-4.035 13.654-1.258a83.859 83.859 0 0 0 17.096 6.432C41.17 84.762 45.42 85.259 49.629 86c.793.14 1.695.16 1.852-.597.138-.662-.905-.626-1.423-.797-5.89-1.944-11.2-4.851-15.6-9.285-5.386-5.428-8.15-12.034-8.468-19.617-.596-14.216 3.837-26.368 14.989-35.674.214-.178.791-.172.497-.655-.087-.143-.55-.18-.774-.094-.928.357-1.9.671-2.732 1.196-10.884 6.875-16.778 16.914-18.573 29.511-.192 1.354-.189 2.733-.277 4.106zM85.132 63.666l-.099-.377-.262.175.404.163-.043.039zM68.836 60.339c3.14-.394 6.684-1.388 8.584-5.186 1.969-3.936 1.571-7.742-.944-11.324-.395-.563-.837-1.544-1.531-1.262-.496.201.069 1.136.243 1.734.775 2.666 1.118 5.345.082 8.025-1.42 3.67-5.262 5.702-8.801 4.609-1.342-.415-2.564-1.119-2.698-2.728-.126-1.516.725-2.412 2.163-2.648 1.378-.227.626-.689.148-1.045-1.959-1.461-4.507-.195-5.049 2.486-.868 4.291 2.21 7.479 7.803 7.339z"></path></g><!----><g data-v-423bf9ae="" id="18da23d2-226a-48fb-b5aa-c652ef2e8e7b" fill="#163530" transform="matrix(1.1417800566383247,0,0,1.1417800566383247,39.52192227606969,198.9357964866494)"><path d="M1.67 13.78L2.60 13.78L3.78 9.55C3.93 9.02 4.06 8.46 4.19 7.91L4.23 7.91C4.35 8.46 4.47 9.02 4.59 9.55L5.82 13.78L6.79 13.78L8.23 4.52L7.45 4.52L6.58 10.65C6.52 11.40 6.40 12.17 6.34 12.91L6.29 12.91C6.06 12.17 5.85 11.38 5.67 10.65L4.56 6.93L3.91 6.93L2.81 10.65C2.62 11.40 2.39 12.17 2.18 12.91L2.14 12.91C2.07 12.17 1.95 11.41 1.89 10.65L0.98 4.52L0.17 4.52ZM20.02 13.96C21.18 13.96 21.97 13.54 22.60 13.12L22.29 12.53C21.64 12.98 20.97 13.26 20.10 13.26C18.45 13.26 17.30 12.07 17.29 10.36L22.85 10.36C22.88 10.18 22.88 9.98 22.88 9.79C22.88 7.74 21.71 6.47 19.84 6.47C18.10 6.47 16.44 7.91 16.44 10.22C16.44 12.56 18.06 13.96 20.02 13.96ZM17.28 9.73C17.46 8.12 18.61 7.13 19.84 7.13C21.22 7.13 22.11 8.04 22.11 9.73ZM35.18 13.96C36.83 13.96 38.29 12.53 38.29 10.09C38.29 7.88 37.32 6.47 35.45 6.47C34.61 6.47 33.68 6.94 33.00 7.67L33.03 6.17L33.03 3.57L32.21 3.57L32.21 13.78L32.89 13.78L32.96 12.98L32.98 12.98C33.66 13.57 34.52 13.96 35.18 13.96ZM35.11 13.26C34.57 13.26 33.75 12.96 33.03 12.25L33.03 8.41C33.82 7.57 34.64 7.17 35.29 7.17C36.83 7.17 37.45 8.40 37.45 10.11C37.45 11.98 36.46 13.26 35.11 13.26ZM50.61 13.96C52.46 13.96 53.49 13.01 53.49 11.89C53.49 10.88 52.72 10.30 50.72 9.77C49.39 9.42 48.54 9.02 48.54 8.37C48.54 7.73 48.97 7.13 50.40 7.13C51.28 7.13 52.02 7.45 52.61 7.91L53.05 7.34C52.39 6.86 51.35 6.47 50.41 6.47C48.58 6.47 47.68 7.35 47.68 8.41C47.68 9.35 48.85 10.02 50.32 10.40C52.19 10.88 52.65 11.34 52.65 11.94C52.65 12.68 51.98 13.29 50.65 13.29C49.32 13.29 48.47 12.89 47.73 12.28L47.31 12.84C48.12 13.44 49.25 13.96 50.61 13.96ZM66.19 4.76C66.64 4.76 67.02 4.41 67.02 3.95C67.02 3.44 66.64 3.11 66.19 3.11C65.74 3.11 65.37 3.44 65.37 3.95C65.37 4.41 65.74 4.76 66.19 4.76ZM63.21 13.78L69.51 13.78L69.51 13.09L66.75 13.09L66.75 6.64L63.21 6.64L63.21 7.32L65.95 7.32L65.95 13.09L63.21 13.09ZM82.53 13.96C83.22 13.96 84.01 13.76 84.63 13.51L84.42 12.91C83.92 13.13 83.37 13.26 82.68 13.26C81.26 13.26 80.86 12.47 80.86 11.12L80.86 7.32L84.36 7.32L84.36 6.64L80.86 6.64L80.86 3.89L80.08 4.54L80.08 6.64L78.08 6.64L78.08 7.32L80.05 7.32L80.05 11.09C80.05 12.80 80.64 13.96 82.53 13.96ZM97.02 13.96C98.18 13.96 98.97 13.54 99.60 13.12L99.29 12.53C98.64 12.98 97.97 13.26 97.10 13.26C95.45 13.26 94.30 12.07 94.29 10.36L99.85 10.36C99.88 10.18 99.88 9.98 99.88 9.79C99.88 7.74 98.71 6.47 96.84 6.47C95.10 6.47 93.44 7.91 93.44 10.22C93.44 12.56 95.06 13.96 97.02 13.96ZM94.28 9.73C94.46 8.12 95.61 7.13 96.84 7.13C98.22 7.13 99.11 8.04 99.11 9.73ZM112.21 13.96C114.06 13.96 115.09 13.01 115.09 11.89C115.09 10.88 114.32 10.30 112.32 9.77C110.99 9.42 110.14 9.02 110.14 8.37C110.14 7.73 110.57 7.13 112.00 7.13C112.88 7.13 113.62 7.45 114.21 7.91L114.65 7.34C113.99 6.86 112.95 6.47 112.01 6.47C110.18 6.47 109.28 7.35 109.28 8.41C109.28 9.35 110.45 10.02 111.92 10.40C113.79 10.88 114.25 11.34 114.25 11.94C114.25 12.68 113.58 13.29 112.25 13.29C110.92 13.29 110.07 12.89 109.33 12.28L108.91 12.84C109.72 13.44 110.85 13.96 112.21 13.96ZM139.57 13.78L140.36 13.78L140.36 8.46C140.77 7.60 141.13 7.18 141.68 7.18C142.28 7.18 142.59 7.69 142.59 8.71L142.59 13.78L143.28 13.78L143.28 8.46C143.68 7.60 144.05 7.18 144.62 7.18C145.21 7.18 145.50 7.69 145.50 8.71L145.50 13.78L146.30 13.78L146.30 8.62C146.30 7.20 145.75 6.47 144.83 6.47C144.09 6.47 143.65 6.93 143.19 7.73C143.02 6.87 142.59 6.47 141.88 6.47C141.12 6.47 140.70 6.92 140.34 7.60L140.29 7.60L140.22 6.64L139.57 6.64ZM157.56 13.96C158.55 13.96 159.56 13.37 160.33 12.73L160.37 12.73L160.44 13.78L161.11 13.78L161.11 9.27C161.11 7.67 160.31 6.47 158.49 6.47C157.30 6.47 156.32 7.08 155.83 7.50L156.17 8.11C156.66 7.67 157.42 7.17 158.37 7.17C159.82 7.17 160.29 8.19 160.30 9.28C156.70 9.62 155.25 10.37 155.25 12.00C155.25 13.30 156.34 13.96 157.56 13.96ZM157.74 13.29C156.88 13.29 156.04 12.89 156.04 11.94C156.04 10.85 157.07 10.18 160.30 9.87L160.30 12.05C159.42 12.87 158.56 13.29 157.74 13.29ZM171.04 13.78L171.85 13.78L171.85 11.77L173.68 9.91L176.44 13.78L177.38 13.78L174.22 9.42L176.96 6.64L175.99 6.64L171.91 10.79L171.85 10.79L171.85 3.57L171.04 3.57ZM189.42 13.96C190.58 13.96 191.37 13.54 192.00 13.12L191.69 12.53C191.04 12.98 190.37 13.26 189.50 13.26C187.85 13.26 186.70 12.07 186.69 10.36L192.25 10.36C192.28 10.18 192.28 9.98 192.28 9.79C192.28 7.74 191.11 6.47 189.24 6.47C187.50 6.47 185.84 7.91 185.84 10.22C185.84 12.56 187.46 13.96 189.42 13.96ZM186.68 9.73C186.86 8.12 188.01 7.13 189.24 7.13C190.62 7.13 191.51 8.04 191.51 9.73ZM202.40 13.78L203.21 13.78L203.21 9.39C204.11 7.81 205.10 7.22 206.18 7.22C206.72 7.22 206.96 7.28 207.45 7.49L207.66 6.76C207.24 6.52 206.78 6.47 206.32 6.47C205.00 6.47 203.92 7.25 203.20 8.40L203.15 8.40L203.08 6.64L202.40 6.64Z"></path></g></svg>